# xmcd
#
# Track frame offsets:
# 180
# 13340
# 25297
# 38347
# 51370
# 63110
# 75645
# 87627
# 98045
# 109275
# 120955
# 134732
# 146980
# 158400
#
# Disc length: 2275 seconds
#
# Revision: 0
# Processed by: cddbd v1.5.1PL0 Copyright (c) Steve Scherf et al.
# Submitted via: Audion 3.0.2 (http://www.panic.com/audion/)
#
DISCID=b808e10e
DTITLE=Lester Williams - The Godfather of Blues
DYEAR=1900
DGENRE=
TTITLE0=Dowling Street Hop
TTITLE1=Wintertime Blues
TTITLE2=Answer to Wintertime Blues
TTITLE3=Texas Town
TTITLE4=I Know That Chick
TTITLE5=She's Crazy
TTITLE6=Hey Jack
TTITLE7=I'm So Glad
TTITLE8=City of New Orleans
TTITLE9=Folks Around the Corner
TTITLE10=Don't Treat Me So Mean
TTITLE11=Mary Lou
TTITLE12=All I Need Is You
TTITLE13=Wonderful Baby
EXTD=
EXTT0=
EXTT1=
EXTT2=
EXTT3=
EXTT4=
EXTT5=
EXTT6=
EXTT7=
EXTT8=
EXTT9=
EXTT10=
EXTT11=
EXTT12=
EXTT13=
PLAYORDER=
